<?xml version="1.0" encoding="iso-8859-1"?>
<!-- Uploaded to: SVG Repo, www.svgrepo.com, Generator: SVG Repo Mixer Tools -->
<svg version="1.1" id="Layer_1" xmlns="http://www.w3.org/2000/svg" xmlns:xlink="http://www.w3.org/1999/xlink" 
	 viewBox="0 0 512 512" xml:space="preserve">
<polygon style="fill:#FF6243;" points="291.853,504.425 55.226,504.425 10.096,152.995 252.697,152.995 "/>
<g>
	<polygon style="opacity:0.4;fill:#891C00;enable-background:new    ;" points="101.072,152.995 126.006,504.425 87.944,504.425 
		42.814,152.995 	"/>
	<polygon style="opacity:0.4;fill:#891C00;enable-background:new    ;" points="246.004,504.425 263.492,368.243 315.617,504.369 	
		"/>
	<polygon style="opacity:0.4;fill:#891C00;enable-background:new    ;" points="232.875,152.995 207.943,504.425 166.92,504.425 
		166.92,152.995 	"/>
</g>
<path style="fill:#FFE477;" d="M26.242,152.884c0,0-15.653-8.584-6.059-20.702s16.663-5.554,19.188-21.712
	c0,0-1.367-11.135,6.919-21.133c10.527-12.7,20.853-10.678,20.853-10.678C82.29,63.511,85.824,35.74,110.061,39.274
	s26.257,4.548,34.336-12.623c8.079-17.172,25.358-26.257,45.752-8.079s4.741,34.336,17.87,35.345
	c13.128,1.01,23.227-15.148,39.89-5.049s31.811,17.168,18.178,26.257c-13.633,9.089,2.02,21.207,14.138,19.188
	c12.118-2.02,6.059,33.326,18.683,32.821c12.623-0.505,11.42,25.862,11.42,25.862L26.242,152.884z"/>
<g style="opacity:0.54;">
	<path style="fill:#EEBF00;" d="M299.816,127.133c-12.623,0.505-6.564-34.841-18.683-32.821
		c-12.118,2.02-27.771-10.099-14.138-19.188c13.633-9.089-1.515-16.158-18.178-26.257c-15.96-9.673-25.899,4.732-38.246,5.079
		c12.593,7.571,20.903,13.69,9.671,21.178c-13.633,9.089,2.02,21.207,14.138,19.188c12.118-2.02,6.059,33.326,18.683,32.821
		c12.528-0.501,11.438,25.455,11.421,25.844l46.753,0.018C311.235,152.995,312.439,126.628,299.816,127.133z"/>
	<path style="fill:#EEBF00;" d="M162.174,53.917c13.128,1.01,23.227-15.148,39.89-5.049c0.379,0.229,0.755,0.455,1.132,0.682
		c-1.352-6.165,2.357-18.058-12.138-30.978c-18.486-16.476-34.411-10.554-43.247,3.486
		C162.795,38.769,149.892,52.972,162.174,53.917z"/>
</g>
<polygon style="fill:#52A2E7;" points="256.648,277.664 248.573,193.416 487.312,193.416 457.509,504.369 278.377,504.369 
	262.701,340.817 "/>
<polygon style="fill:#FF6243;" points="429.894,28.077 413.427,11.61 358.444,66.766 358.445,66.766 358.445,158.589 
	381.732,158.589 381.732,76.411 "/>
<path style="fill:#3C66B1;" d="M390.821,193.386c0,0-22.879,31.82-22.879,128.186s76.053,69.542,76.053,182.797h-49.827
	c0-113.255-76.053-86.431-76.053-182.797s22.879-128.186,22.879-128.186L390.821,193.386L390.821,193.386z"/>
<polygon style="fill:#C6C3CB;" points="471.583,149.88 489.791,149.88 501.906,193.386 236.982,193.386 249.097,149.88 
	411.017,149.88 "/>
<polygon style="opacity:0.43;fill:#3C66B1;enable-background:new    ;" points="489.791,149.88 471.583,149.88 454.998,149.88 
	467.113,193.386 452.425,193.386 422.716,503.359 457.509,503.359 487.218,193.386 501.906,193.386 "/>
<g style="opacity:0.4;">
	<rect x="358.444" y="111.268" style="fill:#891C00;" width="23.288" height="38.617"/>
</g>
<path d="M85.408,138.279c3.371,0,6.447-2.268,7.329-5.684c0.027-0.107,3.11-10.795,10.683-12.132
	c3.937-0.695,6.591-0.656,8.934-0.624c5.945,0.083,10.601-0.387,16.272-7.241c0.539-0.651,1.114-1.367,1.724-2.131
	c7.145-8.927,13.904-16.044,24.256-12.69c5.049,1.636,8.669,3.81,12.169,5.914c7.899,4.747,16.069,9.656,33.004,3.177
	c3.907-1.495,5.861-5.874,4.367-9.782c-1.495-3.907-5.873-5.859-9.781-4.367c-10.043,3.843-12.895,2.129-19.786-2.012
	c-3.833-2.304-8.605-5.172-15.303-7.342c-21.154-6.855-34.39,9.688-40.751,17.636c-0.555,0.695-1.077,1.346-1.566,1.939
	c-1.149,1.389-1.668,1.681-1.659,1.682c-0.363,0.101-1.675,0.084-2.73,0.068c-2.715-0.037-6.431-0.09-11.781,0.854
	c-17.313,3.054-22.506,22.44-22.718,23.263c-1.045,4.051,1.391,8.182,5.441,9.226C84.145,138.2,84.781,138.279,85.408,138.279z"/>
<path d="M509.202,191.354l-12.114-43.506c-0.912-3.276-3.896-5.542-7.296-5.542h-18.208c-4.183,0-7.574,3.39-7.574,7.574
	c0,4.184,3.391,7.574,7.574,7.574h12.455l7.896,28.358h-244.98l7.896-28.358h103.594h23.289h29.284c4.183,0,7.574-3.39,7.574-7.574
	c0-4.184-3.391-7.574-7.574-7.574h-21.71V79.541l45.952-46.118c2.949-2.96,2.945-7.748-0.01-10.703L418.782,6.252
	c-1.421-1.42-3.347-2.218-5.355-2.218c-0.002,0-0.004,0-0.006,0c-2.011,0.002-3.939,0.803-5.358,2.227L353.08,61.419
	c-1.415,1.42-2.21,3.343-2.21,5.347v75.54h-30.876c-1.614-10.308-7.195-23.678-20.407-23.794c-1.149-2.052-2.158-7.501-2.784-10.887
	c-0.847-4.574-1.723-9.304-3.418-13.118c-4.147-9.33-11.457-9.19-14.405-8.702c-4.742,0.795-9.651-2.178-10.522-3.815
	c0.228-0.314,0.77-0.892,1.831-1.599c5.878-3.918,8.79-8.526,8.654-13.697c-0.247-9.385-9.945-15.137-22.223-22.421
	c-1.595-0.946-3.232-1.917-4.884-2.919c-13.681-8.292-24.606-3.129-32.584,0.64c-3.66,1.73-6.869,3.246-9.73,3.352
	c-0.035-0.65-0.057-1.374-0.075-1.992c-0.212-7.207-0.568-19.271-14.256-31.473c-13.569-12.091-25.279-12.82-32.717-11.3
	c-10.465,2.138-19.32,9.883-24.932,21.81c-2.617,5.561-4.708,9.396-6.41,10.034c-2.404,0.903-8.667-0.02-17.331-1.293l-2.649-0.389
	c-21.341-3.108-30.724,12.832-38.264,25.645c-3.357,5.705-6.828,11.603-11.105,15.88c-2.958,2.959-2.958,7.754,0,10.712
	c2.958,2.957,7.754,2.957,10.711,0c5.641-5.642,9.611-12.387,13.448-18.91c7.727-13.127,12.259-19.912,23.022-18.336l2.632,0.386
	c12.116,1.779,18.79,2.762,24.851,0.49c7.257-2.721,10.712-9.081,14.799-17.77c3.475-7.385,8.671-12.276,14.256-13.417
	c7.325-1.493,14.703,3.399,19.604,7.767c8.819,7.861,9.018,14.634,9.194,20.61c0.149,5.083,0.462,15.658,13.134,16.633
	c7.087,0.55,13.038-2.263,18.284-4.741c7.584-3.584,11.842-5.272,18.261-1.382c1.694,1.027,3.372,2.022,5.007,2.992
	c4.807,2.852,11.761,6.977,14.196,9.524c-0.315,0.265-0.738,0.587-1.301,0.961c-7.601,5.069-10.446,12.378-7.608,19.554
	c3.417,8.641,14.774,14.616,25.421,13.633c0.875,2.201,1.687,6.59,2.21,9.409c1.755,9.477,4.401,23.773,17.302,23.282
	c0.025-0.001,0.05-0.002,0.076-0.002c2.349,0,4.211,4.377,5.23,8.643h-55.418c-2.469,0-4.708,1.205-6.104,3.114H30.229
	c-0.115-0.072-0.226-0.147-0.345-0.213c-1.163-0.638-4.7-3.277-5.188-5.689c-0.075-0.368-0.302-1.491,1.425-3.672
	c2.923-3.692,5.246-4.907,7.937-6.316c6.07-3.176,10.867-6.586,12.796-18.928c0.645-4.133-2.181-8.007-6.314-8.653
	c-4.124-0.645-8.006,2.181-8.653,6.314c-0.903,5.78-1.506,6.096-4.851,7.847c-3.32,1.737-7.869,4.116-12.791,10.334
	c-5.035,6.361-5.17,12.256-4.395,16.081c0.205,1.015,0.509,1.972,0.86,2.894h-0.615c-2.177,0-4.249,0.937-5.687,2.571
	c-1.438,1.634-2.104,3.808-1.826,5.967l45.131,351.43c0.485,3.779,3.702,6.61,7.512,6.61h32.687c0.007,0,0.014,0.001,0.021,0.001
	c0.005,0,0.01-0.001,0.015-0.001h158.048c0.005,0,0.01,0.001,0.015,0.001c0.007,0,0.014-0.001,0.021-0.001h45.819
	c0.301,0,0.595-0.022,0.887-0.057h164.769c3.903,0,7.167-2.967,7.54-6.851l29.15-304.131h7.707c2.368,0,4.599-1.108,6.031-2.993
	C509.369,196.083,509.837,193.636,509.202,191.354z M366.018,69.895l47.417-47.567l5.757,5.757l-42.825,42.979
	c-1.414,1.42-2.209,3.343-2.209,5.346v65.895h-8.141L366.018,69.895z M285.259,496.795l-15.019-156.701
	c-0.4-4.164-4.105-7.223-8.262-6.817c-4.165,0.4-7.217,4.099-6.817,8.263l14.885,155.311h-15.435l8.257-64.297
	c0.532-4.149-2.398-7.944-6.548-8.477c-4.152-0.539-7.945,2.398-8.477,6.547l-8.505,66.227h-23.267l20.993-295.891h4.622
	l7.422,77.427c0.399,4.164,4.094,7.219,8.263,6.817c4.164-0.4,7.216-4.099,6.817-8.263l-7.279-75.951h71.72
	c-7.21,17.061-18.087,53.853-18.087,120.581c0,49.33,19.262,68.995,37.889,88.013c18.708,19.099,36.413,37.215,38.031,87.209
	H285.259V496.795z M174.494,496.851V160.569h50.251l-23.859,336.283H174.494z M133.062,496.851l-23.859-336.283h50.143v336.283
	H133.062z M94.608,496.851L51.423,160.569h42.593l23.859,336.283H94.608z M359.252,398.986
	c-18.009-18.387-33.563-34.267-33.563-77.414c0-75.653,14.45-110.494,19.652-120.581h33.114
	c-7.211,17.061-18.087,53.853-18.087,120.581c0,49.33,19.262,68.995,37.889,88.013c18.708,19.099,36.413,37.215,38.031,87.209
	H401.61C399.84,440.462,378.334,418.466,359.252,398.986z M18.704,160.569h17.447l43.185,336.283H61.889L18.704,160.569z
	 M451.181,491.007c-3.017-52.079-23.688-73.223-42.1-92.021c-18.01-18.387-33.563-34.267-33.563-77.414
	c0-75.653,14.45-110.494,19.652-120.581h83.808L451.181,491.007z"/>
</svg>